<svg viewBox="0 0 1200 760" xmlns="http://www.w3.org/2000/svg">
<style>text{font-family:-apple-system,BlinkMacSystemFont,Segoe UI,sans-serif}.title{font-size:24px;font-weight:700}.sub{font-size:13px;fill:#374151}.axis{font-size:12px;fill:#4b5563}.grid{stroke:#e5e7eb}.heat{stroke:#dc2626;stroke-width:3;fill:none}.cool{stroke:#2563eb;stroke-width:3;fill:none}.net{stroke:#111827;stroke-width:3;fill:none;stroke-dasharray:6 4}</style><rect width="100%" height="100%" fill="#fff"/>
<text x="90" y="38" class="title">Monthly Balance for Annual Net-Zero Groups</text>
<text x="90" y="60.0" class="sub"><tspan font-weight="700">Closest annual net zero</tspan> net=16 MWh: 2:hotel 1 + 9:office 7 + 14:res 5 + 15:res 6 + 23:school 1</text>
<line x1="90" y1="350.0" x2="1160" y2="350.0" class="grid"/><text x="80" y="354.0" text-anchor="end" class="axis">-221.3G</text>
<line x1="90" y1="282.5" x2="1160" y2="282.5" class="grid"/><text x="80" y="286.5" text-anchor="end" class="axis">-64.8G</text>
<line x1="90" y1="215.0" x2="1160" y2="215.0" class="grid"/><text x="80" y="219.0" text-anchor="end" class="axis">91.7G</text>
<line x1="90" y1="147.5" x2="1160" y2="147.5" class="grid"/><text x="80" y="151.5" text-anchor="end" class="axis">248.2G</text>
<line x1="90" y1="80.0" x2="1160" y2="80.0" class="grid"/><text x="80" y="84.0" text-anchor="end" class="axis">404.7G</text>
<text x="90.0" y="370.0" text-anchor="middle" class="axis">Jan</text>
<text x="187.3" y="370.0" text-anchor="middle" class="axis">Feb</text>
<text x="284.5" y="370.0" text-anchor="middle" class="axis">Mar</text>
<text x="381.8" y="370.0" text-anchor="middle" class="axis">Apr</text>
<text x="479.1" y="370.0" text-anchor="middle" class="axis">May</text>
<text x="576.4" y="370.0" text-anchor="middle" class="axis">Jun</text>
<text x="673.6" y="370.0" text-anchor="middle" class="axis">Jul</text>
<text x="770.9" y="370.0" text-anchor="middle" class="axis">Aug</text>
<text x="868.2" y="370.0" text-anchor="middle" class="axis">Sep</text>
<text x="965.5" y="370.0" text-anchor="middle" class="axis">Oct</text>
<text x="1062.7" y="370.0" text-anchor="middle" class="axis">Nov</text>
<text x="1160.0" y="370.0" text-anchor="middle" class="axis">Dec</text>
<path d="M 90.0 120.1 L 187.3 98.6 L 284.5 189.9 L 381.8 225.5 L 479.1 251.3 L 576.4 253.7 L 673.6 254.0 L 770.9 254.0 L 868.2 252.7 L 965.5 238.9 L 1062.7 205.5 L 1160.0 118.3" class="heat"/><path d="M 90.0 222.8 L 187.3 225.3 L 284.5 216.6 L 381.8 213.8 L 479.1 200.7 L 576.4 186.2 L 673.6 177.2 L 770.9 181.6 L 868.2 194.0 L 965.5 207.0 L 1062.7 215.8 L 1160.0 221.5" class="cool"/><path d="M 90.0 151.8 L 187.3 127.8 L 284.5 227.9 L 381.8 266.3 L 479.1 305.1 L 576.4 322.0 L 673.6 331.4 L 770.9 326.9 L 868.2 313.2 L 965.5 286.5 L 1062.7 244.3 L 1160.0 151.3" class="net"/>
<text x="90" y="400.0" class="sub"><tspan font-weight="700">Farthest annual net zero</tspan> net=-589,606 MWh: 16:res 7 + 19:restaurant 1 + 20:restaurant 2 + 21:restaurant 3 + 22:restaurant 4</text>
<line x1="90" y1="690.0" x2="1160" y2="690.0" class="grid"/><text x="80" y="694.0" text-anchor="end" class="axis">-221.3G</text>
<line x1="90" y1="622.5" x2="1160" y2="622.5" class="grid"/><text x="80" y="626.5" text-anchor="end" class="axis">-64.8G</text>
<line x1="90" y1="555.0" x2="1160" y2="555.0" class="grid"/><text x="80" y="559.0" text-anchor="end" class="axis">91.7G</text>
<line x1="90" y1="487.5" x2="1160" y2="487.5" class="grid"/><text x="80" y="491.5" text-anchor="end" class="axis">248.2G</text>
<line x1="90" y1="420.0" x2="1160" y2="420.0" class="grid"/><text x="80" y="424.0" text-anchor="end" class="axis">404.7G</text>
<text x="90.0" y="710.0" text-anchor="middle" class="axis">Jan</text>
<text x="187.3" y="710.0" text-anchor="middle" class="axis">Feb</text>
<text x="284.5" y="710.0" text-anchor="middle" class="axis">Mar</text>
<text x="381.8" y="710.0" text-anchor="middle" class="axis">Apr</text>
<text x="479.1" y="710.0" text-anchor="middle" class="axis">May</text>
<text x="576.4" y="710.0" text-anchor="middle" class="axis">Jun</text>
<text x="673.6" y="710.0" text-anchor="middle" class="axis">Jul</text>
<text x="770.9" y="710.0" text-anchor="middle" class="axis">Aug</text>
<text x="868.2" y="710.0" text-anchor="middle" class="axis">Sep</text>
<text x="965.5" y="710.0" text-anchor="middle" class="axis">Oct</text>
<text x="1062.7" y="710.0" text-anchor="middle" class="axis">Nov</text>
<text x="1160.0" y="710.0" text-anchor="middle" class="axis">Dec</text>
<path d="M 90.0 578.6 L 187.3 576.8 L 284.5 588.8 L 381.8 592.5 L 479.1 594.0 L 576.4 594.1 L 673.6 594.1 L 770.9 594.1 L 868.2 594.1 L 965.5 593.5 L 1062.7 591.0 L 1160.0 579.0" class="heat"/><path d="M 90.0 594.1 L 187.3 594.2 L 284.5 589.8 L 381.8 586.9 L 479.1 561.6 L 576.4 537.2 L 673.6 519.6 L 770.9 523.5 L 868.2 545.5 L 965.5 580.6 L 1062.7 589.8 L 1160.0 593.7" class="cool"/><path d="M 90.0 579.0 L 187.3 577.2 L 284.5 593.6 L 381.8 600.2 L 479.1 627.0 L 576.4 651.5 L 673.6 669.0 L 770.9 665.2 L 868.2 643.1 L 965.5 607.5 L 1062.7 595.8 L 1160.0 579.8" class="net"/>
<text x="870" y="55" class="axis"><tspan fill="#dc2626">Heating+DHW</tspan>   <tspan fill="#2563eb">Cooling</tspan>   <tspan fill="#111827">Net H-C</tspan></text></svg>
