<svg viewBox="0 0 1200 760" xmlns="http://www.w3.org/2000/svg">
<style>text{font-family:-apple-system,BlinkMacSystemFont,Segoe UI,sans-serif}.title{font-size:24px;font-weight:700}.axis{font-size:12px;fill:#4b5563}.label{font-size:12px;fill:#111827}.val{font-size:12px;font-weight:700}.grid{stroke:#e5e7eb}.best{fill:#059669}.worst{fill:#ef4444}</style>
<rect width="100%" height="100%" fill="#fff"/>
<text x="325" y="38" class="title">Net-Zero Balance: Closest and Farthest 5-Building Groups</text>
<line x1="325.0" y1="62" x2="325.0" y2="688" class="grid"/>
<text x="325.0" y="710" text-anchor="middle" class="axis">0.0</text>
<line x1="508.4" y1="62" x2="508.4" y2="688" class="grid"/>
<text x="508.4" y="710" text-anchor="middle" class="axis">0.1</text>
<line x1="691.8" y1="62" x2="691.8" y2="688" class="grid"/>
<text x="691.8" y="710" text-anchor="middle" class="axis">0.2</text>
<line x1="875.2" y1="62" x2="875.2" y2="688" class="grid"/>
<text x="875.2" y="710" text-anchor="middle" class="axis">0.3</text>
<line x1="1058.6" y1="62" x2="1058.6" y2="688" class="grid"/>
<text x="1058.6" y="710" text-anchor="middle" class="axis">0.4</text>
<text x="313" y="87.5" text-anchor="end" class="label">2:hotel 1 + 11:res 2 + 16:res 7 + 17:res 8 + 18:res 9</text>
<rect x="325" y="74.0" width="766.7" height="20.7" rx="3" class="best"/>
<text x="1099.7" y="87.5" class="val">closeness 0.418, abs net 1,046,390 MWh</text>
<text x="313" y="118.0" text-anchor="end" class="label">2:hotel 1 + 10:res 1 + 16:res 7 + 17:res 8 + 18:res 9</text>
<rect x="325" y="104.5" width="766.6" height="20.7" rx="3" class="best"/>
<text x="1099.6" y="118.0" class="val">closeness 0.418, abs net 1,046,320 MWh</text>
<text x="313" y="148.5" text-anchor="end" class="label">2:hotel 1 + 10:res 1 + 11:res 2 + 16:res 7 + 17:res 8</text>
<rect x="325" y="135.0" width="766.6" height="20.7" rx="3" class="best"/>
<text x="1099.6" y="148.5" class="val">closeness 0.418, abs net 1,047,279 MWh</text>
<text x="313" y="179.0" text-anchor="end" class="label">2:hotel 1 + 10:res 1 + 11:res 2 + 17:res 8 + 18:res 9</text>
<rect x="325" y="165.5" width="766.6" height="20.7" rx="3" class="best"/>
<text x="1099.6" y="179.0" class="val">closeness 0.418, abs net 1,047,216 MWh</text>
<text x="313" y="209.5" text-anchor="end" class="label">2:hotel 1 + 13:res 4 + 16:res 7 + 17:res 8 + 18:res 9</text>
<rect x="325" y="196.0" width="766.6" height="20.7" rx="3" class="best"/>
<text x="1099.6" y="209.5" class="val">closeness 0.418, abs net 1,046,056 MWh</text>
<text x="313" y="240.0" text-anchor="end" class="label">2:hotel 1 + 15:res 6 + 16:res 7 + 17:res 8 + 18:res 9</text>
<rect x="325" y="226.5" width="766.6" height="20.7" rx="3" class="best"/>
<text x="1099.6" y="240.0" class="val">closeness 0.418, abs net 1,046,022 MWh</text>
<text x="313" y="270.5" text-anchor="end" class="label">2:hotel 1 + 11:res 2 + 13:res 4 + 16:res 7 + 17:res 8</text>
<rect x="325" y="257.0" width="766.5" height="20.7" rx="3" class="best"/>
<text x="1099.5" y="270.5" class="val">closeness 0.418, abs net 1,047,014 MWh</text>
<text x="313" y="301.0" text-anchor="end" class="label">2:hotel 1 + 11:res 2 + 15:res 6 + 16:res 7 + 17:res 8</text>
<rect x="325" y="287.5" width="766.5" height="20.7" rx="3" class="best"/>
<text x="1099.5" y="301.0" class="val">closeness 0.418, abs net 1,046,980 MWh</text>
<text x="313" y="331.5" text-anchor="end" class="label">2:hotel 1 + 11:res 2 + 13:res 4 + 17:res 8 + 18:res 9</text>
<rect x="325" y="318.0" width="766.5" height="20.7" rx="3" class="best"/>
<text x="1099.5" y="331.5" class="val">closeness 0.418, abs net 1,046,950 MWh</text>
<text x="313" y="362.0" text-anchor="end" class="label">2:hotel 1 + 11:res 2 + 15:res 6 + 17:res 8 + 18:res 9</text>
<rect x="325" y="348.5" width="766.5" height="20.7" rx="3" class="best"/>
<text x="1099.5" y="362.0" class="val">closeness 0.418, abs net 1,046,919 MWh</text>
<text x="313" y="392.5" text-anchor="end" class="label">10:res 1 + 11:res 2 + 12:res 3 + 13:res 4 + 14:res 5</text>
<rect x="325" y="379.0" width="45.3" height="20.7" rx="3" class="worst"/>
<text x="378.3" y="392.5" class="val">closeness 0.025, abs net 195,863 MWh</text>
<text x="313" y="423.0" text-anchor="end" class="label">11:res 2 + 12:res 3 + 13:res 4 + 14:res 5 + 18:res 9</text>
<rect x="325" y="409.5" width="45.5" height="20.7" rx="3" class="worst"/>
<text x="378.5" y="423.0" class="val">closeness 0.025, abs net 194,483 MWh</text>
<text x="313" y="453.5" text-anchor="end" class="label">11:res 2 + 12:res 3 + 13:res 4 + 14:res 5 + 17:res 8</text>
<rect x="325" y="440.0" width="45.6" height="20.7" rx="3" class="worst"/>
<text x="378.6" y="453.5" class="val">closeness 0.025, abs net 193,941 MWh</text>
<text x="313" y="484.0" text-anchor="end" class="label">11:res 2 + 12:res 3 + 13:res 4 + 14:res 5 + 15:res 6</text>
<rect x="325" y="470.5" width="45.7" height="20.7" rx="3" class="worst"/>
<text x="378.7" y="484.0" class="val">closeness 0.025, abs net 195,247 MWh</text>
<text x="313" y="514.5" text-anchor="end" class="label">10:res 1 + 11:res 2 + 13:res 4 + 14:res 5 + 18:res 9</text>
<rect x="325" y="501.0" width="45.7" height="20.7" rx="3" class="worst"/>
<text x="378.7" y="514.5" class="val">closeness 0.025, abs net 194,287 MWh</text>
<text x="313" y="545.0" text-anchor="end" class="label">10:res 1 + 11:res 2 + 12:res 3 + 14:res 5 + 18:res 9</text>
<rect x="325" y="531.5" width="45.7" height="20.7" rx="3" class="worst"/>
<text x="378.7" y="545.0" class="val">closeness 0.025, abs net 194,971 MWh</text>
<text x="313" y="575.5" text-anchor="end" class="label">10:res 1 + 12:res 3 + 13:res 4 + 14:res 5 + 18:res 9</text>
<rect x="325" y="562.0" width="45.8" height="20.7" rx="3" class="worst"/>
<text x="378.8" y="575.5" class="val">closeness 0.025, abs net 194,252 MWh</text>
<text x="313" y="606.0" text-anchor="end" class="label">11:res 2 + 12:res 3 + 13:res 4 + 14:res 5 + 16:res 7</text>
<rect x="325" y="592.5" width="45.8" height="20.7" rx="3" class="worst"/>
<text x="378.8" y="606.0" class="val">closeness 0.025, abs net 194,578 MWh</text>
<text x="313" y="636.5" text-anchor="end" class="label">10:res 1 + 11:res 2 + 13:res 4 + 14:res 5 + 15:res 6</text>
<rect x="325" y="623.0" width="45.8" height="20.7" rx="3" class="worst"/>
<text x="378.8" y="636.5" class="val">closeness 0.025, abs net 195,054 MWh</text>
<text x="313" y="667.0" text-anchor="end" class="label">10:res 1 + 11:res 2 + 13:res 4 + 14:res 5 + 17:res 8</text>
<rect x="325" y="653.5" width="45.9" height="20.7" rx="3" class="worst"/>
<text x="378.9" y="667.0" class="val">closeness 0.025, abs net 193,737 MWh</text>
<text x="325" y="740" class="axis">Closeness = 1 - sum(abs(H-C)) / sum(H+C). Higher is closer to zero hour-by-hour.</text>
</svg>
