<svg viewBox="0 0 1200 720" xmlns="http://www.w3.org/2000/svg">
<style>text{font-family:-apple-system,BlinkMacSystemFont,Segoe UI,sans-serif}.title{font-size:24px;font-weight:700}.axis{font-size:12px;fill:#4b5563}.label{font-size:11px;fill:#111827}.grid{stroke:#e5e7eb}.best{fill:#059669}.worst{fill:#ef4444}</style>
<rect width="100%" height="100%" fill="#fff"/>
<text x="120" y="38" class="title">Building Frequency in 100 Closest-to-Zero vs 100 Farthest Groups</text>
<line x1="120" y1="600.0" x2="1150" y2="600.0" class="grid"/>
<text x="110" y="604.0" text-anchor="end" class="axis">0</text>
<line x1="120" y1="547.0" x2="1150" y2="547.0" class="grid"/>
<text x="110" y="551.0" text-anchor="end" class="axis">10</text>
<line x1="120" y1="494.0" x2="1150" y2="494.0" class="grid"/>
<text x="110" y="498.0" text-anchor="end" class="axis">20</text>
<line x1="120" y1="441.0" x2="1150" y2="441.0" class="grid"/>
<text x="110" y="445.0" text-anchor="end" class="axis">30</text>
<line x1="120" y1="388.0" x2="1150" y2="388.0" class="grid"/>
<text x="110" y="392.0" text-anchor="end" class="axis">40</text>
<line x1="120" y1="335.0" x2="1150" y2="335.0" class="grid"/>
<text x="110" y="339.0" text-anchor="end" class="axis">50</text>
<line x1="120" y1="282.0" x2="1150" y2="282.0" class="grid"/>
<text x="110" y="286.0" text-anchor="end" class="axis">60</text>
<line x1="120" y1="229.0" x2="1150" y2="229.0" class="grid"/>
<text x="110" y="233.0" text-anchor="end" class="axis">70</text>
<line x1="120" y1="176.0" x2="1150" y2="176.0" class="grid"/>
<text x="110" y="180.0" text-anchor="end" class="axis">80</text>
<line x1="120" y1="123.0" x2="1150" y2="123.0" class="grid"/>
<text x="110" y="127.0" text-anchor="end" class="axis">90</text>
<line x1="120" y1="70.0" x2="1150" y2="70.0" class="grid"/>
<text x="110" y="74.0" text-anchor="end" class="axis">100</text>
<rect x="125.4" y="70.0" width="15.2" height="530.0" class="best"/>
<rect x="142.4" y="600.0" width="15.2" height="0.0" class="worst"/>
<text x="141.0" y="618" text-anchor="end" transform="rotate(-55 141.0 618)" class="label">2:hotel 1</text>
<rect x="170.2" y="303.2" width="15.2" height="296.8" class="best"/>
<rect x="187.2" y="329.7" width="15.2" height="270.3" class="worst"/>
<text x="185.8" y="618" text-anchor="end" transform="rotate(-55 185.8 618)" class="label">17:res 8</text>
<rect x="214.9" y="345.6" width="15.2" height="254.4" class="best"/>
<rect x="232.0" y="350.9" width="15.2" height="249.1" class="worst"/>
<text x="230.6" y="618" text-anchor="end" transform="rotate(-55 230.6 618)" class="label">16:res 7</text>
<rect x="259.7" y="600.0" width="15.2" height="0.0" class="best"/>
<rect x="276.7" y="600.0" width="15.2" height="0.0" class="worst"/>
<text x="275.4" y="618" text-anchor="end" transform="rotate(-55 275.4 618)" class="label">1:mall 1</text>
<rect x="304.5" y="600.0" width="15.2" height="0.0" class="best"/>
<rect x="321.5" y="600.0" width="15.2" height="0.0" class="worst"/>
<text x="320.2" y="618" text-anchor="end" transform="rotate(-55 320.2 618)" class="label">3:office 1</text>
<rect x="349.3" y="600.0" width="15.2" height="0.0" class="best"/>
<rect x="366.3" y="600.0" width="15.2" height="0.0" class="worst"/>
<text x="365.0" y="618" text-anchor="end" transform="rotate(-55 365.0 618)" class="label">4:office 2</text>
<rect x="394.1" y="600.0" width="15.2" height="0.0" class="best"/>
<rect x="411.1" y="600.0" width="15.2" height="0.0" class="worst"/>
<text x="409.7" y="618" text-anchor="end" transform="rotate(-55 409.7 618)" class="label">5:office 3</text>
<rect x="438.9" y="600.0" width="15.2" height="0.0" class="best"/>
<rect x="455.9" y="600.0" width="15.2" height="0.0" class="worst"/>
<text x="454.5" y="618" text-anchor="end" transform="rotate(-55 454.5 618)" class="label">6:office 4</text>
<rect x="483.6" y="600.0" width="15.2" height="0.0" class="best"/>
<rect x="500.7" y="600.0" width="15.2" height="0.0" class="worst"/>
<text x="499.3" y="618" text-anchor="end" transform="rotate(-55 499.3 618)" class="label">7:office 5</text>
<rect x="528.4" y="600.0" width="15.2" height="0.0" class="best"/>
<rect x="545.4" y="600.0" width="15.2" height="0.0" class="worst"/>
<text x="544.1" y="618" text-anchor="end" transform="rotate(-55 544.1 618)" class="label">8:office 6</text>
<rect x="573.2" y="600.0" width="15.2" height="0.0" class="best"/>
<rect x="590.2" y="600.0" width="15.2" height="0.0" class="worst"/>
<text x="588.9" y="618" text-anchor="end" transform="rotate(-55 588.9 618)" class="label">9:office 7</text>
<rect x="618.0" y="600.0" width="15.2" height="0.0" class="best"/>
<rect x="635.0" y="600.0" width="15.2" height="0.0" class="worst"/>
<text x="633.7" y="618" text-anchor="end" transform="rotate(-55 633.7 618)" class="label">19:restaurant 1</text>
<rect x="662.8" y="600.0" width="15.2" height="0.0" class="best"/>
<rect x="679.8" y="600.0" width="15.2" height="0.0" class="worst"/>
<text x="678.4" y="618" text-anchor="end" transform="rotate(-55 678.4 618)" class="label">20:restaurant 2</text>
<rect x="707.5" y="600.0" width="15.2" height="0.0" class="best"/>
<rect x="724.6" y="600.0" width="15.2" height="0.0" class="worst"/>
<text x="723.2" y="618" text-anchor="end" transform="rotate(-55 723.2 618)" class="label">21:restaurant 3</text>
<rect x="752.3" y="600.0" width="15.2" height="0.0" class="best"/>
<rect x="769.3" y="600.0" width="15.2" height="0.0" class="worst"/>
<text x="768.0" y="618" text-anchor="end" transform="rotate(-55 768.0 618)" class="label">22:restaurant 4</text>
<rect x="797.1" y="600.0" width="15.2" height="0.0" class="best"/>
<rect x="814.1" y="600.0" width="15.2" height="0.0" class="worst"/>
<text x="812.8" y="618" text-anchor="end" transform="rotate(-55 812.8 618)" class="label">23:school 1</text>
<rect x="841.9" y="345.6" width="15.2" height="254.4" class="best"/>
<rect x="858.9" y="329.7" width="15.2" height="270.3" class="worst"/>
<text x="857.6" y="618" text-anchor="end" transform="rotate(-55 857.6 618)" class="label">18:res 9</text>
<rect x="886.7" y="372.1" width="15.2" height="227.9" class="best"/>
<rect x="903.7" y="345.6" width="15.2" height="254.4" class="worst"/>
<text x="902.4" y="618" text-anchor="end" transform="rotate(-55 902.4 618)" class="label">15:res 6</text>
<rect x="931.5" y="372.1" width="15.2" height="227.9" class="best"/>
<rect x="948.5" y="313.8" width="15.2" height="286.2" class="worst"/>
<text x="947.1" y="618" text-anchor="end" transform="rotate(-55 947.1 618)" class="label">10:res 1</text>
<rect x="976.2" y="345.6" width="15.2" height="254.4" class="best"/>
<rect x="993.3" y="276.7" width="15.2" height="323.3" class="worst"/>
<text x="991.9" y="618" text-anchor="end" transform="rotate(-55 991.9 618)" class="label">11:res 2</text>
<rect x="1021.0" y="372.1" width="15.2" height="227.9" class="best"/>
<rect x="1038.0" y="276.7" width="15.2" height="323.3" class="worst"/>
<text x="1036.7" y="618" text-anchor="end" transform="rotate(-55 1036.7 618)" class="label">13:res 4</text>
<rect x="1065.8" y="388.0" width="15.2" height="212.0" class="best"/>
<rect x="1082.8" y="250.2" width="15.2" height="349.8" class="worst"/>
<text x="1081.5" y="618" text-anchor="end" transform="rotate(-55 1081.5 618)" class="label">14:res 5</text>
<rect x="1110.6" y="435.7" width="15.2" height="164.3" class="best"/>
<rect x="1127.6" y="276.7" width="15.2" height="323.3" class="worst"/>
<text x="1126.3" y="618" text-anchor="end" transform="rotate(-55 1126.3 618)" class="label">12:res 3</text>
<rect x="940" y="55" width="14" height="14" class="best"/><text x="960" y="67" class="axis">Closest 100</text>
<rect x="1055" y="55" width="14" height="14" class="worst"/><text x="1075" y="67" class="axis">Farthest 100</text>
</svg>
