<svg viewBox="0 0 1200 760" xmlns="http://www.w3.org/2000/svg" role="img" aria-label="Monthly heating cooling and net load for best and worst groups">
<style>text{font-family:-apple-system,BlinkMacSystemFont,Segoe UI,sans-serif}.title{font-size:24px;font-weight:700}.sub{font-size:13px;fill:#374151}.axis{font-size:12px;fill:#4b5563}.grid{stroke:#e5e7eb}.heat{stroke:#dc2626;stroke-width:3;fill:none}.cool{stroke:#2563eb;stroke-width:3;fill:none}.net{stroke:#111827;stroke-width:3;fill:none;stroke-dasharray:6 4}</style>
<rect width="100%" height="100%" fill="#fff"/>
<text x="90" y="38" class="title">Monthly Thermal Balance for Best and Worst 5-Building Groups</text>
<text x="90" y="60.0" class="sub"><tspan font-weight="700">Best group</tspan> ZP=0.264: 2:hotel 1 + 11:res 2 + 16:res 7 + 17:res 8 + 18:res 9</text>
<line x1="90" y1="350.0" x2="1160" y2="350.0" class="grid"/>
<text x="80" y="354.0" text-anchor="end" class="axis">-190.0G</text>
<line x1="90" y1="282.5" x2="1160" y2="282.5" class="grid"/>
<text x="80" y="286.5" text-anchor="end" class="axis">-94.6G</text>
<line x1="90" y1="215.0" x2="1160" y2="215.0" class="grid"/>
<text x="80" y="219.0" text-anchor="end" class="axis">0.7G</text>
<line x1="90" y1="147.5" x2="1160" y2="147.5" class="grid"/>
<text x="80" y="151.5" text-anchor="end" class="axis">96.1G</text>
<line x1="90" y1="80.0" x2="1160" y2="80.0" class="grid"/>
<text x="80" y="84.0" text-anchor="end" class="axis">191.4G</text>
<text x="90.0" y="370.0" text-anchor="middle" class="axis">Jan</text>
<text x="187.3" y="370.0" text-anchor="middle" class="axis">Feb</text>
<text x="284.5" y="370.0" text-anchor="middle" class="axis">Mar</text>
<text x="381.8" y="370.0" text-anchor="middle" class="axis">Apr</text>
<text x="479.1" y="370.0" text-anchor="middle" class="axis">May</text>
<text x="576.4" y="370.0" text-anchor="middle" class="axis">Jun</text>
<text x="673.6" y="370.0" text-anchor="middle" class="axis">Jul</text>
<text x="770.9" y="370.0" text-anchor="middle" class="axis">Aug</text>
<text x="868.2" y="370.0" text-anchor="middle" class="axis">Sep</text>
<text x="965.5" y="370.0" text-anchor="middle" class="axis">Oct</text>
<text x="1062.7" y="370.0" text-anchor="middle" class="axis">Nov</text>
<text x="1160.0" y="370.0" text-anchor="middle" class="axis">Dec</text>
<path d="M 90.0 116.3 L 187.3 116.7 L 284.5 162.0 L 381.8 188.2 L 479.1 210.2 L 576.4 213.9 L 673.6 214.5 L 770.9 214.4 L 868.2 212.6 L 965.5 196.3 L 1062.7 172.8 L 1160.0 118.3" class="heat"/>
<path d="M 90.0 167.2 L 187.3 171.1 L 284.5 162.2 L 381.8 161.2 L 479.1 146.6 L 576.4 130.2 L 673.6 98.6 L 770.9 103.7 L 868.2 137.6 L 965.5 153.9 L 1062.7 164.1 L 1160.0 166.5" class="cool"/>
<path d="M 90.0 164.6 L 187.3 161.1 L 284.5 215.3 L 381.8 242.6 L 479.1 279.0 L 576.4 299.2 L 673.6 331.4 L 770.9 326.2 L 868.2 290.5 L 965.5 257.9 L 1062.7 224.2 L 1160.0 167.3" class="net"/>
<text x="90" y="400.0" class="sub"><tspan font-weight="700">Worst group</tspan> ZP=0.012: 10:res 1 + 11:res 2 + 12:res 3 + 13:res 4 + 14:res 5</text>
<line x1="90" y1="690.0" x2="1160" y2="690.0" class="grid"/>
<text x="80" y="694.0" text-anchor="end" class="axis">-190.0G</text>
<line x1="90" y1="622.5" x2="1160" y2="622.5" class="grid"/>
<text x="80" y="626.5" text-anchor="end" class="axis">-94.6G</text>
<line x1="90" y1="555.0" x2="1160" y2="555.0" class="grid"/>
<text x="80" y="559.0" text-anchor="end" class="axis">0.7G</text>
<line x1="90" y1="487.5" x2="1160" y2="487.5" class="grid"/>
<text x="80" y="491.5" text-anchor="end" class="axis">96.1G</text>
<line x1="90" y1="420.0" x2="1160" y2="420.0" class="grid"/>
<text x="80" y="424.0" text-anchor="end" class="axis">191.4G</text>
<text x="90.0" y="710.0" text-anchor="middle" class="axis">Jan</text>
<text x="187.3" y="710.0" text-anchor="middle" class="axis">Feb</text>
<text x="284.5" y="710.0" text-anchor="middle" class="axis">Mar</text>
<text x="381.8" y="710.0" text-anchor="middle" class="axis">Apr</text>
<text x="479.1" y="710.0" text-anchor="middle" class="axis">May</text>
<text x="576.4" y="710.0" text-anchor="middle" class="axis">Jun</text>
<text x="673.6" y="710.0" text-anchor="middle" class="axis">Jul</text>
<text x="770.9" y="710.0" text-anchor="middle" class="axis">Aug</text>
<text x="868.2" y="710.0" text-anchor="middle" class="axis">Sep</text>
<text x="965.5" y="710.0" text-anchor="middle" class="axis">Oct</text>
<text x="1062.7" y="710.0" text-anchor="middle" class="axis">Nov</text>
<text x="1160.0" y="710.0" text-anchor="middle" class="axis">Dec</text>
<path d="M 90.0 536.7 L 187.3 538.3 L 284.5 543.8 L 381.8 549.3 L 479.1 553.6 L 576.4 554.5 L 673.6 554.6 L 770.9 554.6 L 868.2 554.6 L 965.5 552.9 L 1062.7 548.9 L 1160.0 540.4" class="heat"/>
<path d="M 90.0 555.5 L 187.3 555.5 L 284.5 555.5 L 381.8 555.5 L 479.1 555.5 L 576.4 552.7 L 673.6 527.4 L 770.9 530.6 L 868.2 552.8 L 965.5 555.5 L 1062.7 555.5 L 1160.0 555.5" class="cool"/>
<path d="M 90.0 536.7 L 187.3 538.3 L 284.5 543.8 L 381.8 549.3 L 479.1 553.6 L 576.4 557.4 L 673.6 582.7 L 770.9 579.5 L 868.2 557.2 L 965.5 552.9 L 1062.7 548.9 L 1160.0 540.4" class="net"/>
<text x="870" y="55" class="axis"><tspan fill="#dc2626">Heating+DHW</tspan>   <tspan fill="#2563eb">Cooling</tspan>   <tspan fill="#111827">Net</tspan></text>
</svg>
