<svg viewBox="0 0 1200 760" xmlns="http://www.w3.org/2000/svg" role="img" aria-label="Zarin Pass metric top and bottom groups of five">
<style>text{font-family:-apple-system,BlinkMacSystemFont,Segoe UI,sans-serif}.title{font-size:24px;font-weight:700}.axis{font-size:12px;fill:#4b5563}.label{font-size:12px;fill:#111827}.val{font-size:12px;font-weight:700}.grid{stroke:#e5e7eb}.thr{stroke:#ef4444;stroke-width:2;stroke-dasharray:6 5}.best{fill:#2563eb}.worst{fill:#f97316}</style>
<rect width="100%" height="100%" fill="#ffffff"/>
<text x="300" y="38" class="title">Zarin Pass Diversity: Best and Worst 5-Building Groups</text>
<line x1="300.0" y1="62" x2="300.0" y2="698" class="grid"/>
<text x="300.0" y="718" text-anchor="middle" class="axis">0.00</text>
<line x1="447.2" y1="62" x2="447.2" y2="698" class="grid"/>
<text x="447.2" y="718" text-anchor="middle" class="axis">0.05</text>
<line x1="594.3" y1="62" x2="594.3" y2="698" class="grid"/>
<text x="594.3" y="718" text-anchor="middle" class="axis">0.10</text>
<line x1="741.5" y1="62" x2="741.5" y2="698" class="grid"/>
<text x="741.5" y="718" text-anchor="middle" class="axis">0.15</text>
<line x1="816.4" y1="62" x2="816.4" y2="698" class="thr"/>
<text x="816.4" y="718" text-anchor="middle" class="axis">1/5.7</text>
<line x1="888.7" y1="62" x2="888.7" y2="698" class="grid"/>
<text x="888.7" y="718" text-anchor="middle" class="axis">0.20</text>
<line x1="1035.8" y1="62" x2="1035.8" y2="698" class="grid"/>
<text x="1035.8" y="718" text-anchor="middle" class="axis">0.25</text>
<text x="288" y="87.7" text-anchor="end" class="label">2:hotel 1 + 11:res 2 + 16:res 7 + 17:res 8 + 18:res 9</text>
<rect x="300" y="74.0" width="777.8" height="21.1" rx="3" class="best"/>
<text x="1085.8" y="87.7" class="val">0.264</text>
<text x="288" y="118.7" text-anchor="end" class="label">2:hotel 1 + 10:res 1 + 16:res 7 + 17:res 8 + 18:res 9</text>
<rect x="300" y="105.0" width="777.7" height="21.1" rx="3" class="best"/>
<text x="1085.7" y="118.7" class="val">0.264</text>
<text x="288" y="149.7" text-anchor="end" class="label">2:hotel 1 + 10:res 1 + 11:res 2 + 16:res 7 + 17:res 8</text>
<rect x="300" y="136.0" width="777.7" height="21.1" rx="3" class="best"/>
<text x="1085.7" y="149.7" class="val">0.264</text>
<text x="288" y="180.7" text-anchor="end" class="label">2:hotel 1 + 10:res 1 + 11:res 2 + 17:res 8 + 18:res 9</text>
<rect x="300" y="167.0" width="777.7" height="21.1" rx="3" class="best"/>
<text x="1085.7" y="180.7" class="val">0.264</text>
<text x="288" y="211.7" text-anchor="end" class="label">2:hotel 1 + 13:res 4 + 16:res 7 + 17:res 8 + 18:res 9</text>
<rect x="300" y="198.0" width="777.7" height="21.1" rx="3" class="best"/>
<text x="1085.7" y="211.7" class="val">0.264</text>
<text x="288" y="242.7" text-anchor="end" class="label">2:hotel 1 + 15:res 6 + 16:res 7 + 17:res 8 + 18:res 9</text>
<rect x="300" y="229.0" width="777.7" height="21.1" rx="3" class="best"/>
<text x="1085.7" y="242.7" class="val">0.264</text>
<text x="288" y="273.7" text-anchor="end" class="label">2:hotel 1 + 11:res 2 + 13:res 4 + 16:res 7 + 17:res 8</text>
<rect x="300" y="260.0" width="777.6" height="21.1" rx="3" class="best"/>
<text x="1085.6" y="273.7" class="val">0.264</text>
<text x="288" y="304.7" text-anchor="end" class="label">2:hotel 1 + 11:res 2 + 15:res 6 + 16:res 7 + 17:res 8</text>
<rect x="300" y="291.0" width="777.6" height="21.1" rx="3" class="best"/>
<text x="1085.6" y="304.7" class="val">0.264</text>
<text x="288" y="335.7" text-anchor="end" class="label">2:hotel 1 + 11:res 2 + 13:res 4 + 17:res 8 + 18:res 9</text>
<rect x="300" y="322.0" width="777.6" height="21.1" rx="3" class="best"/>
<text x="1085.6" y="335.7" class="val">0.264</text>
<text x="288" y="366.7" text-anchor="end" class="label">2:hotel 1 + 11:res 2 + 15:res 6 + 17:res 8 + 18:res 9</text>
<rect x="300" y="353.0" width="777.6" height="21.1" rx="3" class="best"/>
<text x="1085.6" y="366.7" class="val">0.264</text>
<text x="288" y="397.7" text-anchor="end" class="label">10:res 1 + 11:res 2 + 12:res 3 + 13:res 4 + 14:res 5</text>
<rect x="300" y="384.0" width="36.8" height="21.1" rx="3" class="worst"/>
<text x="344.8" y="397.7" class="val">0.012</text>
<text x="288" y="428.7" text-anchor="end" class="label">11:res 2 + 12:res 3 + 13:res 4 + 14:res 5 + 18:res 9</text>
<rect x="300" y="415.0" width="37.0" height="21.1" rx="3" class="worst"/>
<text x="345.0" y="428.7" class="val">0.013</text>
<text x="288" y="459.7" text-anchor="end" class="label">11:res 2 + 12:res 3 + 13:res 4 + 14:res 5 + 17:res 8</text>
<rect x="300" y="446.0" width="37.1" height="21.1" rx="3" class="worst"/>
<text x="345.1" y="459.7" class="val">0.013</text>
<text x="288" y="490.7" text-anchor="end" class="label">11:res 2 + 12:res 3 + 13:res 4 + 14:res 5 + 15:res 6</text>
<rect x="300" y="477.0" width="37.1" height="21.1" rx="3" class="worst"/>
<text x="345.1" y="490.7" class="val">0.013</text>
<text x="288" y="521.7" text-anchor="end" class="label">10:res 1 + 11:res 2 + 13:res 4 + 14:res 5 + 18:res 9</text>
<rect x="300" y="508.0" width="37.1" height="21.1" rx="3" class="worst"/>
<text x="345.1" y="521.7" class="val">0.013</text>
<text x="288" y="552.7" text-anchor="end" class="label">10:res 1 + 11:res 2 + 12:res 3 + 14:res 5 + 18:res 9</text>
<rect x="300" y="539.0" width="37.2" height="21.1" rx="3" class="worst"/>
<text x="345.2" y="552.7" class="val">0.013</text>
<text x="288" y="583.7" text-anchor="end" class="label">10:res 1 + 12:res 3 + 13:res 4 + 14:res 5 + 18:res 9</text>
<rect x="300" y="570.0" width="37.2" height="21.1" rx="3" class="worst"/>
<text x="345.2" y="583.7" class="val">0.013</text>
<text x="288" y="614.7" text-anchor="end" class="label">11:res 2 + 12:res 3 + 13:res 4 + 14:res 5 + 16:res 7</text>
<rect x="300" y="601.0" width="37.2" height="21.1" rx="3" class="worst"/>
<text x="345.2" y="614.7" class="val">0.013</text>
<text x="288" y="645.7" text-anchor="end" class="label">10:res 1 + 11:res 2 + 13:res 4 + 14:res 5 + 15:res 6</text>
<rect x="300" y="632.0" width="37.3" height="21.1" rx="3" class="worst"/>
<text x="345.3" y="645.7" class="val">0.013</text>
<text x="288" y="676.7" text-anchor="end" class="label">10:res 1 + 11:res 2 + 13:res 4 + 14:res 5 + 17:res 8</text>
<rect x="300" y="663.0" width="37.3" height="21.1" rx="3" class="worst"/>
<text x="345.3" y="676.7" class="val">0.013</text>
<text x="300" y="742" class="axis">Red dashed line is the 1:5.7 criterion mapped to min/max = 0.175.</text>
</svg>
